<?xml version="1.0" encoding="UTF-8" standalone="no"?>
<svg
   xmlns:dc="http://purl.org/dc/elements/1.1/"
   xmlns:cc="http://creativecommons.org/ns#"
   xmlns:rdf="http://www.w3.org/1999/02/22-rdf-syntax-ns#"
   xmlns:svg="http://www.w3.org/2000/svg"
   xmlns="http://www.w3.org/2000/svg"
   id="svg8"
   version="1.1"
   viewBox="0 0 210 297"
   height="297mm"
   width="210mm">
  <defs
     id="defs2" />
  <metadata
     id="metadata5">
    <rdf:RDF>
      <cc:Work
         rdf:about="">
        <dc:format>image/svg+xml</dc:format>
        <dc:type
           rdf:resource="http://purl.org/dc/dcmitype/StillImage" />
        <dc:title></dc:title>
      </cc:Work>
    </rdf:RDF>
  </metadata>
  <g
     id="layer1">
    <path
       id="path6348"
       d="m 67.531647,176.96852 v 0.71624 c -0.05414,0.15494 -0.200813,0.26768 -0.373621,0.26768 -0.218278,0 -0.396874,0.1786 -0.396874,0.39688 0,0.21829 -0.178594,0.39687 -0.396875,0.39687 -0.218279,0 -0.396875,0.17859 -0.396875,0.39688 0,0.21828 -0.178594,0.39687 -0.396875,0.39687 -0.33808,0 -0.396875,0.70556 -0.396875,4.7625 v 4.7625 h 5.556249 5.55625 v -3.175 -3.175 h -1.5875 c -0.180686,0 -0.30553,-0.007 -0.450101,-0.0109 v -5.73557 z m -0.910024,5.12941 h 1.350307 v 1.35082 h -0.440283 v 0.001 H 66.62886 v -0.001 h -0.0072 z m 0.0072,2.06395 h 1.350822 v 1.35083 H 66.62886 Z m 0,2.06293 h 1.350822 v 1.35082 H 66.62886 Z"
       style="fill:#000000;stroke-width:0.26458332" />
    <path
       id="path6298"
       d="m 69.50635,160.45665 c -0.529158,0 -0.79375,0.13229 -0.79375,0.39687 0,0.21829 -0.178593,0.39688 -0.396875,0.39688 -0.218278,0 -0.396875,0.17859 -0.396875,0.39687 0,0.21829 -0.178593,0.39688 -0.396875,0.39688 -0.218278,0 -0.396875,0.17858 -0.396875,0.39687 0,0.21828 -0.178593,0.39688 -0.396875,0.39688 -0.338079,0 -0.396875,0.70556 -0.396875,4.7625 v 4.7625 h 5.55625 5.55625 v -3.175 -3.175 h -1.5875 c -1.23472,0 -1.5875,-0.0882 -1.5875,-0.39688 0,-0.21828 0.178597,-0.39687 0.396875,-0.39687 0.323371,0 0.396875,-0.44097 0.396875,-2.38125 v -2.38125 H 74.26885 73.4751 v 2.38125 c 0,1.94028 -0.07349,2.38125 -0.396875,2.38125 -0.323379,0 -0.396875,-0.44097 -0.396875,-2.38125 v -2.38125 H 71.8876 c -0.705548,0 -0.79375,0.0882 -0.79375,0.79375 0,0.52917 0.132287,0.79375 0.396875,0.79375 0.218282,0 0.396875,0.17858 0.396875,0.39687 0,0.21828 -0.178593,0.39688 -0.396875,0.39688 -0.218278,0 -0.396875,0.17858 -0.396875,0.39687 0,0.21828 -0.178593,0.39688 -0.396875,0.39688 -0.308678,0 -0.396875,-0.35278 -0.396875,-1.5875 v -1.5875 z m -1.719791,4.94026 h 1.350822 v 1.35083 h -1.350822 z m 0,2.06293 h 1.350822 v 1.35082 h -1.350822 z m 0,2.06292 h 1.350822 v 1.35082 h -1.350822 z"
       style="fill:#000000;stroke-width:0.26458332" />
  </g>
</svg>
